<?xml version="1.0" encoding="UTF-8" standalone="no"?>
<!DOCTYPE svg PUBLIC "-//W3C//DTD SVG 1.0//EN" "http://www.w3.org/TR/2001/PR-SVG-20010719/DTD/svg10.dtd">
<svg width="18cm" height="6cm" viewBox="72 66 346 111" xmlns="http://www.w3.org/2000/svg" xmlns:xlink="http://www.w3.org/1999/xlink">
  <g>
    <path style="fill: #ffffff" d="M 73 83.8333 C 91.6,71.9583 100.9,68 119.5,68 C 138.1,68 147.4,71.9583 166,83.8333 L 166,147.167 C 147.4,159.042 138.1,163 119.5,163 C 100.9,163 91.6,159.042 73,147.167 L 73,83.8333z"/>
    <path style="fill: none; fill-opacity:0; stroke-width: 2; stroke: #000000" d="M 73 83.8333 C 91.6,71.9583 100.9,68 119.5,68 C 138.1,68 147.4,71.9583 166,83.8333 L 166,147.167 C 147.4,159.042 138.1,163 119.5,163 C 100.9,163 91.6,159.042 73,147.167 L 73,83.8333"/>
    <path style="fill: none; fill-opacity:0; stroke-width: 2; stroke: #000000" d="M 73 83.8333 C 91.6,95.7083 100.9,99.6667 119.5,99.6667 C 138.1,99.6667 147.4,95.7083 166,83.8333"/>
    <text font-size="12.7998" style="fill: #000000;text-anchor:middle;font-family:sans-serif;font-style:normal;font-weight:normal" x="119.5" y="127.417">
      <tspan x="119.5" y="127.417">Disk</tspan>
    </text>
  </g>
  <g>
    <line style="fill: none; fill-opacity:0; stroke-width: 2; stroke: #000000" x1="173" y1="119" x2="278.264" y2="119.915"/>
    <polygon style="fill: #000000" points="285.764,119.981 275.721,124.893 278.264,119.915 275.808,114.894 "/>
    <polygon style="fill: none; fill-opacity:0; stroke-width: 2; stroke: #000000" points="285.764,119.981 275.721,124.893 278.264,119.915 275.808,114.894 "/>
  </g>
  <text font-size="12.8" style="fill: #000000;text-anchor:start;font-family:sans-serif;font-style:normal;font-weight:normal" x="209" y="112">
    <tspan x="209" y="112">FTP</tspan>
  </text>
  <g>
    <ellipse style="fill: #ffffff" cx="363" cy="122" rx="53" ry="54"/>
    <ellipse style="fill: none; fill-opacity:0; stroke-width: 2; stroke: #000000" cx="363" cy="122" rx="53" ry="54"/>
    <line style="fill: none; fill-opacity:0; stroke-width: 2; stroke: #000000" x1="363" y1="176" x2="416" y2="176"/>
    <text font-size="12.7998" style="fill: #000000;text-anchor:middle;font-family:sans-serif;font-style:normal;font-weight:normal" x="363" y="126">
      <tspan x="363" y="126"></tspan>
    </text>
  </g>
  <text font-size="12.8" style="fill: #000000;text-anchor:start;font-family:sans-serif;font-style:normal;font-weight:normal" x="351" y="127.8">
    <tspan x="351" y="127.8">Tape</tspan>
  </text>
  <text font-size="12.8" style="fill: #000000;text-anchor:start;font-family:sans-serif;font-style:normal;font-weight:normal" x="209" y="137">
    <tspan x="209" y="137">IPv6</tspan>
  </text>
</svg>
