<?xml version="1.0" encoding="UTF-8" standalone="no"?>
<!DOCTYPE svg PUBLIC "-//W3C//DTD SVG 1.0//EN" "http://www.w3.org/TR/2001/PR-SVG-20010719/DTD/svg10.dtd">
<svg viewBox="116 27 744 541" xmlns="http://www.w3.org/2000/svg" xmlns:xlink="http://www.w3.org/1999/xlink">
  <g>
    <rect style="fill: #ffffff" x="533" y="254.6" width="94" height="44"/>
    <rect style="fill: none; fill-opacity:0; stroke-width: 2; stroke: #000000" x="533" y="254.6" width="94" height="44"/>
  </g>
  <g>
    <path style="fill: #add8e6" d="M 389.686 332.372 C 364.277,332.054 315,338.737 321.93,353.06 C 328.859,367.382 361.967,370.565 375.826,366.428 C 389.686,362.29 354.268,386.479 422.024,392.845 C 489.779,399.21 524.427,389.025 514.418,381.705 C 504.408,374.384 573.704,398.892 606.042,384.888 C 638.38,370.883 572.934,357.516 586.793,359.426 C 600.652,361.335 643,358.789 629.141,334.918 C 615.282,311.047 490.549,329.507 504.408,326.006 C 518.267,322.505 483.619,305 440.503,308.501 C 397.385,312.002 394.327,318.355 389.707,332.359 L 389.686,332.372z"/>
    <path style="fill: none; fill-opacity:0; stroke-width: 2; stroke: #000000" d="M 389.686 332.372 C 364.277,332.054 315,338.737 321.93,353.06 C 328.859,367.382 361.967,370.565 375.826,366.428 C 389.686,362.29 354.268,386.479 422.024,392.845 C 489.779,399.21 524.427,389.025 514.418,381.705 C 504.408,374.384 573.704,398.892 606.042,384.888 C 638.38,370.883 572.934,357.516 586.793,359.426 C 600.652,361.335 643,358.789 629.141,334.918 C 615.282,311.047 490.549,329.507 504.408,326.006 C 518.267,322.505 483.619,305 440.503,308.501 C 397.385,312.002 394.327,318.355 389.707,332.359 L 389.686,332.372"/>
    <text font-size="12.8" style="fill: #000000;text-anchor:middle;font-family:sans-serif;font-style:normal;font-weight:normal" x="487.793" y="357.766">
      <tspan x="487.793" y="357.766"></tspan>
    </text>
  </g>
  <text font-size="16.9333" style="fill: #000000;text-anchor:start;font-family:sans-serif;font-style:normal;font-weight:normal" x="439.166" y="350.76">
    <tspan x="439.166" y="350.76">Enterprise</tspan>
    <tspan x="439.166" y="371.927">routing cloud</tspan>
  </text>
  <g>
    <rect style="fill: #ffffff" x="318" y="255" width="94" height="44"/>
    <rect style="fill: none; fill-opacity:0; stroke-width: 2; stroke: #000000" x="318" y="255" width="94" height="44"/>
  </g>
  <text font-size="16.9333" style="fill: #000000;text-anchor:middle;font-family:sans-serif;font-style:normal;font-weight:normal" x="364" y="272">
    <tspan x="364" y="272">CE Router</tspan>
    <tspan x="364" y="293.167">1</tspan>
  </text>
  <text font-size="12.8" style="fill: #000000;text-anchor:middle;font-family:sans-serif;font-style:normal;font-weight:normal" x="349" y="261">
    <tspan x="349" y="261"></tspan>
  </text>
  <text font-size="16.9333" style="fill: #000000;text-anchor:middle;font-family:sans-serif;font-style:normal;font-weight:normal" x="579" y="270.35">
    <tspan x="579" y="270.35">CE Router</tspan>
    <tspan x="579" y="291.517">2</tspan>
  </text>
  <g>
    <rect style="fill: #add8e6" x="132" y="180" width="94" height="42.6" rx="8" ry="8"/>
    <rect style="fill: none; fill-opacity:0; stroke-width: 2; stroke-linejoin: round; stroke: #000000" x="132" y="180" width="94" height="42.6" rx="8" ry="8"/>
  </g>
  <g>
    <rect style="fill: #add8e6" x="686" y="178" width="94" height="45.2" rx="8" ry="8"/>
    <rect style="fill: none; fill-opacity:0; stroke-width: 2; stroke-linejoin: round; stroke: #000000" x="686" y="178" width="94" height="45.2" rx="8" ry="8"/>
  </g>
  <text font-size="16.9333" style="fill: #000000;text-anchor:start;font-family:sans-serif;font-style:normal;font-weight:normal" x="154" y="208.3">
    <tspan x="154" y="208.3">ISP X</tspan>
  </text>
  <text font-size="16.9333" style="fill: #000000;text-anchor:start;font-family:sans-serif;font-style:normal;font-weight:normal" x="709" y="204.35">
    <tspan x="709" y="204.35">ISP Y</tspan>
  </text>
  <g>
    <rect style="fill: #ffffff" x="438" y="422.6" width="94" height="44"/>
    <rect style="fill: none; fill-opacity:0; stroke-width: 2; stroke: #000000" x="438" y="422.6" width="94" height="44"/>
  </g>
  <text font-size="16.9333" style="fill: #000000;text-anchor:start;font-family:sans-serif;font-style:normal;font-weight:normal" x="447" y="439.35">
    <tspan x="447" y="439.35">Subnet</tspan>
    <tspan x="447" y="460.517">Router</tspan>
  </text>
  <line style="fill: none; fill-opacity:0; stroke-width: 2; stroke: #000000" x1="627" y1="276.6" x2="733" y2="223.2"/>
  <line style="fill: none; fill-opacity:0; stroke-width: 2; stroke: #000000" x1="318" y1="277" x2="179" y2="222.6"/>
  <line style="fill: none; fill-opacity:0; stroke-width: 2; stroke: #000000" x1="365" y1="299" x2="366" y2="332"/>
  <line style="fill: none; fill-opacity:0; stroke-width: 2; stroke: #000000" x1="580" y1="321" x2="580" y2="298.6"/>
  <line style="fill: none; fill-opacity:0; stroke-width: 2; stroke: #000000" x1="481" y1="420.6" x2="481" y2="395"/>
  <line style="fill: none; fill-opacity:0; stroke-width: 4; stroke: #000000" x1="481" y1="469" x2="481" y2="498"/>
  <line style="fill: none; fill-opacity:0; stroke-width: 4; stroke: #000000" x1="426" y1="501" x2="552" y2="501"/>
  <g>
    <rect style="fill: #ffffff" x="392" y="522.6" width="94" height="44"/>
    <rect style="fill: none; fill-opacity:0; stroke-width: 2; stroke: #000000" x="392" y="522.6" width="94" height="44"/>
  </g>
  <text font-size="12.8" style="fill: #000000;text-anchor:start;font-family:sans-serif;font-style:normal;font-weight:normal" x="586" y="603">
    <tspan x="586" y="603"></tspan>
  </text>
  <text font-size="16.9333" style="fill: #000000;text-anchor:start;font-family:sans-serif;font-style:normal;font-weight:normal" x="422" y="550.6">
    <tspan x="422" y="550.6">Host</tspan>
  </text>
  <line style="fill: none; fill-opacity:0; stroke-width: 4; stroke: #000000" x1="440" y1="500" x2="439.516" y2="521.592"/>
  <text font-size="16.9333" style="fill: #0000ff;text-anchor:start;font-family:sans-serif;font-style:normal;font-weight:normal" x="207" y="167">
    <tspan x="207" y="167">2001:db8:a000::/36</tspan>
  </text>
  <text font-size="16.9333" style="fill: #0000ff;text-anchor:start;font-family:sans-serif;font-style:normal;font-weight:normal" x="552" y="167.35">
    <tspan x="552" y="167.35">2001:db8:b000::/36</tspan>
  </text>
  <text font-size="16.9333" style="fill: #0000ff;text-anchor:start;font-family:sans-serif;font-style:normal;font-weight:normal" x="116" y="281.95">
    <tspan x="116" y="281.95">2001:db8:abcd::/48</tspan>
  </text>
  <text font-size="16.9333" style="fill: #0000ff;text-anchor:start;font-family:sans-serif;font-style:normal;font-weight:normal" x="664" y="277.35">
    <tspan x="664" y="277.35">2001:db8:b123::/48</tspan>
  </text>
  <text font-size="16.9333" style="fill: #0000ff;text-anchor:start;font-family:sans-serif;font-style:normal;font-weight:normal" x="540" y="459.35">
    <tspan x="540" y="459.35">2001:db8:b123:0101::/64</tspan>
  </text>
  <text font-size="16.9333" style="fill: #0000ff;text-anchor:start;font-family:sans-serif;font-style:normal;font-weight:normal" x="539" y="437.35">
    <tspan x="539" y="437.35">2001:db8:abcd:0101::/64</tspan>
  </text>
  <text font-size="16.9333" style="fill: #0000ff;text-anchor:start;font-family:sans-serif;font-style:normal;font-weight:normal" x="497" y="561.95">
    <tspan x="497" y="561.95">2001:db8:b123:0101::def2</tspan>
  </text>
  <text font-size="16.9333" style="fill: #0000ff;text-anchor:start;font-family:sans-serif;font-style:normal;font-weight:normal" x="497" y="539.35">
    <tspan x="497" y="539.35">2001:db8:abcd:0101::abc1</tspan>
  </text>
  <g>
    <line style="fill: none; fill-opacity:0; stroke-width: 2; stroke: #000000" x1="430.736" y1="276.094" x2="515.264" y2="276.906"/>
    <polygon style="fill: #000000" points="423.236,276.021 433.284,271.118 430.736,276.094 433.187,281.117 "/>
    <polygon style="fill: none; fill-opacity:0; stroke-width: 2; stroke: #000000" points="423.236,276.021 433.284,271.118 430.736,276.094 433.187,281.117 "/>
    <polygon style="fill: #000000" points="522.764,276.979 512.716,281.882 515.264,276.906 512.813,271.883 "/>
    <polygon style="fill: none; fill-opacity:0; stroke-width: 2; stroke: #000000" points="522.764,276.979 512.716,281.882 515.264,276.906 512.813,271.883 "/>
  </g>
  <text font-size="12.8" style="fill: #000000;text-anchor:start;font-family:sans-serif;font-style:normal;font-weight:normal" x="446" y="264">
    <tspan x="446" y="264">Backup</tspan>
    <tspan x="446" y="280"></tspan>
    <tspan x="446" y="296">routes</tspan>
  </text>
  <g>
    <path style="fill: #add8e6" d="M 287.726 62.5812 C 230.324,62.1744 119,70.7163 134.655,89.0204 C 150.31,107.324 225.106,111.392 256.416,106.104 C 287.726,100.816 207.711,131.73 360.782,139.865 C 513.851,148 592.126,134.984 569.513,125.628 C 546.901,116.273 703.45,147.593 776.507,129.696 C 849.563,111.799 701.711,94.715 733.021,97.1555 C 764.331,99.5961 860,96.342 828.69,65.8352 C 797.38,35.3284 515.591,58.9203 546.901,54.446 C 578.211,49.9717 499.936,27.6 402.529,32.0743 C 305.12,36.5487 298.211,44.668 287.774,62.5653 L 287.726,62.5812z"/>
    <path style="fill: none; fill-opacity:0; stroke-width: 2; stroke: #000000" d="M 287.726 62.5812 C 230.324,62.1744 119,70.7163 134.655,89.0204 C 150.31,107.324 225.106,111.392 256.416,106.104 C 287.726,100.816 207.711,131.73 360.782,139.865 C 513.851,148 592.126,134.984 569.513,125.628 C 546.901,116.273 703.45,147.593 776.507,129.696 C 849.563,111.799 701.711,94.715 733.021,97.1555 C 764.331,99.5961 860,96.342 828.69,65.8352 C 797.38,35.3284 515.591,58.9203 546.901,54.446 C 578.211,49.9717 499.936,27.6 402.529,32.0743 C 305.12,36.5487 298.211,44.668 287.774,62.5653 L 287.726,62.5812"/>
    <text font-size="12.8" style="fill: #000000;text-anchor:middle;font-family:sans-serif;font-style:normal;font-weight:normal" x="509.364" y="93.9224">
      <tspan x="509.364" y="93.9224"></tspan>
    </text>
  </g>
  <text font-size="22.5778" style="fill: #000000;text-anchor:start;font-family:sans-serif;font-style:normal;font-weight:normal" x="327.056" y="94.3598">
    <tspan x="327.056" y="94.3598">Internet BGP-4 stratosphere</tspan>
  </text>
  <line style="fill: none; fill-opacity:0; stroke-width: 2; stroke: #000000" x1="179" y1="180" x2="238" y2="109"/>
  <line style="fill: none; fill-opacity:0; stroke-width: 2; stroke: #000000" x1="734" y1="137" x2="733" y2="178"/>
</svg>
